<svg width="40" height="40" viewBox="0 0 40 40" fill="none" xmlns="http://www.w3.org/2000/svg">
<path d="M0.5 0.5H35C37.4853 0.5 39.5 2.51472 39.5 5V39.5H5C2.51472 39.5 0.5 37.4853 0.5 35V0.5Z" fill="#FDC500"/>
<path d="M11.7 25.14C11.1773 25.14 10.692 25.042 10.244 24.846C9.796 24.6407 9.40867 24.3653 9.082 24.02C8.75533 23.6653 8.49867 23.2593 8.312 22.802C8.13467 22.3447 8.046 21.8547 8.046 21.332C8.046 20.6507 8.2 20.0253 8.508 19.456C8.82533 18.8867 9.25933 18.434 9.81 18.098C10.3607 17.7527 10.986 17.58 11.686 17.58C12.4047 17.58 13.03 17.7527 13.562 18.098C14.1033 18.4433 14.528 18.9007 14.836 19.47C15.144 20.03 15.298 20.646 15.298 21.318C15.298 21.3927 15.298 21.4673 15.298 21.542C15.298 21.6073 15.2933 21.6587 15.284 21.696H9.04C9.08667 22.2187 9.23133 22.6853 9.474 23.096C9.726 23.4973 10.048 23.8193 10.44 24.062C10.8413 24.2953 11.2753 24.412 11.742 24.412C12.218 24.412 12.666 24.2907 13.086 24.048C13.5153 23.8053 13.814 23.488 13.982 23.096L14.808 23.32C14.6587 23.6653 14.43 23.978 14.122 24.258C13.814 24.538 13.45 24.7573 13.03 24.916C12.6193 25.0653 12.176 25.14 11.7 25.14ZM9.012 21.01H14.402C14.3647 20.478 14.22 20.0113 13.968 19.61C13.7253 19.2087 13.4033 18.896 13.002 18.672C12.61 18.4387 12.176 18.322 11.7 18.322C11.224 18.322 10.79 18.4387 10.398 18.672C10.006 18.896 9.684 19.2133 9.432 19.624C9.18933 20.0253 9.04933 20.4873 9.012 21.01ZM19.9308 25.14C19.3988 25.14 18.9088 25.042 18.4608 24.846C18.0221 24.6407 17.6348 24.3607 17.2988 24.006C16.9721 23.6513 16.7155 23.2453 16.5288 22.788C16.3515 22.3307 16.2628 21.8453 16.2628 21.332C16.2628 20.6413 16.4168 20.0113 16.7248 19.442C17.0328 18.8727 17.4621 18.42 18.0128 18.084C18.5635 17.748 19.1981 17.58 19.9168 17.58C20.5981 17.58 21.2001 17.7387 21.7228 18.056C22.2455 18.364 22.6328 18.784 22.8848 19.316L21.9608 19.61C21.7555 19.2367 21.4661 18.9473 21.0928 18.742C20.7288 18.5273 20.3228 18.42 19.8748 18.42C19.3895 18.42 18.9461 18.546 18.5448 18.798C18.1435 19.05 17.8215 19.3953 17.5788 19.834C17.3455 20.2727 17.2288 20.772 17.2288 21.332C17.2288 21.8827 17.3501 22.382 17.5928 22.83C17.8355 23.278 18.1575 23.6373 18.5588 23.908C18.9601 24.1693 19.4035 24.3 19.8888 24.3C20.2061 24.3 20.5095 24.244 20.7988 24.132C21.0975 24.02 21.3541 23.8707 21.5688 23.684C21.7928 23.488 21.9421 23.278 22.0168 23.054L22.9548 23.334C22.8241 23.6793 22.6048 23.992 22.2968 24.272C21.9981 24.5427 21.6435 24.7573 21.2328 24.916C20.8315 25.0653 20.3975 25.14 19.9308 25.14ZM27.49 25.14C26.9674 25.14 26.482 25.042 26.034 24.846C25.5954 24.6407 25.2127 24.3653 24.886 24.02C24.5687 23.6653 24.3214 23.264 24.144 22.816C23.9667 22.3587 23.878 21.878 23.878 21.374C23.878 20.8513 23.9667 20.366 24.144 19.918C24.3214 19.4607 24.5734 19.0593 24.9 18.714C25.2267 18.3593 25.6094 18.084 26.048 17.888C26.496 17.6827 26.9814 17.58 27.504 17.58C28.0267 17.58 28.5074 17.6827 28.946 17.888C29.3847 18.084 29.7674 18.3593 30.094 18.714C30.4207 19.0593 30.6727 19.4607 30.85 19.918C31.0274 20.366 31.116 20.8513 31.116 21.374C31.116 21.878 31.0274 22.3587 30.85 22.816C30.6727 23.264 30.4207 23.6653 30.094 24.02C29.7767 24.3653 29.394 24.6407 28.946 24.846C28.5074 25.042 28.022 25.14 27.49 25.14ZM24.844 21.388C24.844 21.9293 24.9607 22.424 25.194 22.872C25.4367 23.3107 25.7587 23.6607 26.16 23.922C26.5614 24.174 27.0047 24.3 27.49 24.3C27.9754 24.3 28.4187 24.1693 28.82 23.908C29.2214 23.6467 29.5434 23.292 29.786 22.844C30.0287 22.3867 30.15 21.892 30.15 21.36C30.15 20.8187 30.0287 20.324 29.786 19.876C29.5434 19.428 29.2214 19.0733 28.82 18.812C28.4187 18.5507 27.9754 18.42 27.49 18.42C27.0047 18.42 26.5614 18.5553 26.16 18.826C25.768 19.0967 25.4507 19.456 25.208 19.904C24.9654 20.3427 24.844 20.8373 24.844 21.388Z" fill="#171A1A"/>
<path d="M0.5 0.5H35C37.4853 0.5 39.5 2.51472 39.5 5V39.5H5C2.51472 39.5 0.5 37.4853 0.5 35V0.5Z" stroke="#FDC500"/>
</svg>
