<svg width="11" height="16" viewBox="0 0 11 16" fill="none" xmlns="http://www.w3.org/2000/svg">
<g clip-path="url(#clip0_396_310)">
<path d="M5.67363 2.13333C3.84303 2.13333 2.35373 3.84726 2.35373 5.95397C2.35373 6.13264 2.42814 7.15423 3.89716 9.72725C4.4889 10.7637 5.1537 11.7833 5.72009 12.6171C6.10958 12.0381 6.5452 11.3621 6.9723 10.6449C8.93681 7.34601 8.99353 6.08671 8.99353 5.95397C8.99353 3.84726 7.50423 2.13333 5.67363 2.13333ZM5.67363 0C8.53095 0 10.8473 2.66568 10.8473 5.95397C10.8473 9.20593 5.76069 16 5.67462 16C5.67366 16 5.67333 15.9992 5.67363 15.9975C5.70083 15.8434 0.5 9.24226 0.5 5.95397C0.5 2.66568 2.81631 0 5.67363 0Z" fill="#FDC500"/>
</g>
<defs>
<clipPath id="clip0_396_310">
<rect width="10.3475" height="16" fill="white" transform="translate(0.5)"/>
</clipPath>
</defs>
</svg>
