<svg width="40" height="40" viewBox="0 0 40 40" fill="none" xmlns="http://www.w3.org/2000/svg">
<path d="M11.9062 16.5938C11.699 16.5938 11.5003 16.6761 11.3538 16.8226C11.2073 16.9691 11.125 17.1678 11.125 17.375V27.9219C11.125 29.3984 12.3828 30.6562 13.8594 30.6562H27.1406C28.6172 30.6562 29.875 29.4595 29.875 27.9829V17.375C29.875 17.1678 29.7927 16.9691 29.6462 16.8226C29.4997 16.6761 29.301 16.5938 29.0938 16.5938H11.9062Z" stroke="#0F0F0F" stroke-linecap="round" stroke-linejoin="round"/>
<path d="M15.8125 16.5938V15.0312C15.8125 13.788 16.3064 12.5958 17.1854 11.7167C18.0645 10.8376 19.2568 10.3438 20.5 10.3438C21.7432 10.3438 22.9355 10.8376 23.8146 11.7167C24.6936 12.5958 25.1875 13.788 25.1875 15.0312V16.5938" stroke="#0F0F0F" stroke-linecap="round" stroke-linejoin="round"/>
</svg>
